<svg xmlns="http://www.w3.org/2000/svg" xmlns:xlink="http://www.w3.org/1999/xlink" viewBox="0 0 580 580" width="580" height="580" preserveAspectRatio="xMidYMid meet" style="width: 100%; height: 100%; transform: translate3d(0px, 0px, 0px); content-visibility: visible;"><defs><clipPath id="__lottie_element_75"><rect width="580" height="580" x="0" y="0"></rect></clipPath><clipPath id="__lottie_element_77"><path d="M0,0 L750,0 L750,750 L0,750z"></path></clipPath><g id="__lottie_element_80"><g transform="matrix(1,0,0,1,375.21240234375,353.723388671875)" opacity="1" style="display: block;"><path fill="rgb(255,0,0)" fill-opacity="1" d=" M-202,48 C-187.19900512695312,48 -175.1999969482422,36.000999450683594 -175.1999969482422,21.200000762939453 C-175.1999969482422,6.39900016784668 -187.19900512695312,-5.599999904632568 -202,-5.599999904632568 C-216.80099487304688,-5.599999904632568 -228.8000030517578,6.39900016784668 -228.8000030517578,21.200000762939453 C-228.8000030517578,36.000999450683594 -216.80099487304688,48 -202,48z"></path><g opacity="1" transform="matrix(1,0,0,1,0,0)"><path stroke-linecap="round" stroke-linejoin="round" fill-opacity="0" stroke="rgb(255,255,255)" stroke-opacity="1" stroke-width="3" d=" M-202,48 C-187.19900512695312,48 -175.1999969482422,36.000999450683594 -175.1999969482422,21.200000762939453 C-175.1999969482422,6.39900016784668 -187.19900512695312,-5.599999904632568 -202,-5.599999904632568 C-216.80099487304688,-5.599999904632568 -228.8000030517578,6.39900016784668 -228.8000030517578,21.200000762939453 C-228.8000030517578,36.000999450683594 -216.80099487304688,48 -202,48z"></path></g></g></g><filter id="__lottie_element_86" filterUnits="objectBoundingBox" x="0%" y="0%" width="100%" height="100%"><feComponentTransfer in="SourceGraphic"><feFuncA type="table" tableValues="1.0 0.0"></feFuncA></feComponentTransfer></filter><mask id="__lottie_element_80_2" mask-type="alpha"><g filter="url(#__lottie_element_86)"><rect width="750" height="750" x="0" y="0" fill="#ffffff" opacity="0"></rect><use xlink:href="#__lottie_element_80"></use></g></mask><g id="__lottie_element_105"><g transform="matrix(1,0,0,1,135,135)" opacity="1" style="display: block;"><g opacity="1" transform="matrix(1,0,0,1,240,240.00001525878906)"><path fill="rgb(255,0,0)" fill-opacity="1" d=" M202,48 C216.80099487304688,48 228.8000030517578,36.000999450683594 228.8000030517578,21.200000762939453 C228.8000030517578,6.39900016784668 216.80099487304688,-5.599999904632568 202,-5.599999904632568 C187.19900512695312,-5.599999904632568 175.1999969482422,6.39900016784668 175.1999969482422,21.200000762939453 C175.1999969482422,36.000999450683594 187.19900512695312,48 202,48z"></path><g opacity="1" transform="matrix(1,0,0,1,0,0)"><path stroke-linecap="round" stroke-linejoin="round" fill-opacity="0" stroke="rgb(255,255,255)" stroke-opacity="1" stroke-width="3" d=" M202,48 C216.80099487304688,48 228.8000030517578,36.000999450683594 228.8000030517578,21.200000762939453 C228.8000030517578,6.39900016784668 216.80099487304688,-5.599999904632568 202,-5.599999904632568 C187.19900512695312,-5.599999904632568 175.1999969482422,6.39900016784668 175.1999969482422,21.200000762939453 C175.1999969482422,36.000999450683594 187.19900512695312,48 202,48z"></path></g></g><g opacity="1" transform="matrix(1,0,0,1,240.23741149902344,206.72459411621094)"><path fill="rgb(255,0,0)" fill-opacity="1" d=" M121.19999694824219,48 C136.00100708007812,48 148,36.000999450683594 148,21.200000762939453 C148,6.39900016784668 136.00100708007812,-5.599999904632568 121.19999694824219,-5.599999904632568 C106.39900207519531,-5.599999904632568 94.4000015258789,6.39900016784668 94.4000015258789,21.200000762939453 C94.4000015258789,36.000999450683594 106.39900207519531,48 121.19999694824219,48z"></path><g opacity="1" transform="matrix(1,0,0,1,0,0)"><path stroke-linecap="round" stroke-linejoin="round" fill-opacity="0" stroke="rgb(255,255,255)" stroke-opacity="1" stroke-width="3" d=" M121.19999694824219,48 C136.00100708007812,48 148,36.000999450683594 148,21.200000762939453 C148,6.39900016784668 136.00100708007812,-5.599999904632568 121.19999694824219,-5.599999904632568 C106.39900207519531,-5.599999904632568 94.4000015258789,6.39900016784668 94.4000015258789,21.200000762939453 C94.4000015258789,36.000999450683594 106.39900207519531,48 121.19999694824219,48z"></path></g></g><g opacity="1" transform="matrix(1,0,0,1,237.26712036132812,172.8942108154297)"><path fill="rgb(255,0,0)" fill-opacity="1" d=" M40.400001525878906,48 C55.20100021362305,48 67.19999694824219,36.000999450683594 67.19999694824219,21.200000762939453 C67.19999694824219,6.39900016784668 55.20100021362305,-5.599999904632568 40.400001525878906,-5.599999904632568 C25.599000930786133,-5.599999904632568 13.600000381469727,6.39900016784668 13.600000381469727,21.200000762939453 C13.600000381469727,36.000999450683594 25.599000930786133,48 40.400001525878906,48z"></path><g opacity="1" transform="matrix(1,0,0,1,0,0)"><path stroke-linecap="round" stroke-linejoin="round" fill-opacity="0" stroke="rgb(255,255,255)" stroke-opacity="1" stroke-width="3" d=" M40.400001525878906,48 C55.20100021362305,48 67.19999694824219,36.000999450683594 67.19999694824219,21.200000762939453 C67.19999694824219,6.39900016784668 55.20100021362305,-5.599999904632568 40.400001525878906,-5.599999904632568 C25.599000930786133,-5.599999904632568 13.600000381469727,6.39900016784668 13.600000381469727,21.200000762939453 C13.600000381469727,36.000999450683594 25.599000930786133,48 40.400001525878906,48z"></path></g></g><g opacity="1" transform="matrix(1,0,0,1,239.603515625,260.239501953125)"><path fill="rgb(255,0,0)" fill-opacity="1" d=" M-40.400001525878906,48 C-25.599000930786133,48 -13.600000381469727,36.000999450683594 -13.600000381469727,21.200000762939453 C-13.600000381469727,6.39900016784668 -25.599000930786133,-5.599999904632568 -40.400001525878906,-5.599999904632568 C-55.20100021362305,-5.599999904632568 -67.19999694824219,6.39900016784668 -67.19999694824219,21.200000762939453 C-67.19999694824219,36.000999450683594 -55.20100021362305,48 -40.400001525878906,48z"></path><g opacity="1" transform="matrix(1,0,0,1,0,0)"><path stroke-linecap="round" stroke-linejoin="round" fill-opacity="0" stroke="rgb(255,255,255)" stroke-opacity="1" stroke-width="3" d=" M-40.400001525878906,48 C-25.599000930786133,48 -13.600000381469727,36.000999450683594 -13.600000381469727,21.200000762939453 C-13.600000381469727,6.39900016784668 -25.599000930786133,-5.599999904632568 -40.400001525878906,-5.599999904632568 C-55.20100021362305,-5.599999904632568 -67.19999694824219,6.39900016784668 -67.19999694824219,21.200000762939453 C-67.19999694824219,36.000999450683594 -55.20100021362305,48 -40.400001525878906,48z"></path></g></g><g opacity="1" transform="matrix(1,0,0,1,240.202880859375,285.43463134765625)"><path fill="rgb(255,0,0)" fill-opacity="1" d=" M-121.19999694824219,48 C-106.39900207519531,48 -94.4000015258789,36.000999450683594 -94.4000015258789,21.200000762939453 C-94.4000015258789,6.39900016784668 -106.39900207519531,-5.599999904632568 -121.19999694824219,-5.599999904632568 C-136.00100708007812,-5.599999904632568 -148,6.39900016784668 -148,21.200000762939453 C-148,36.000999450683594 -136.00100708007812,48 -121.19999694824219,48z"></path><g opacity="1" transform="matrix(1,0,0,1,0,0)"><path stroke-linecap="round" stroke-linejoin="round" fill-opacity="0" stroke="rgb(255,255,255)" stroke-opacity="1" stroke-width="3" d=" M-121.19999694824219,48 C-106.39900207519531,48 -94.4000015258789,36.000999450683594 -94.4000015258789,21.200000762939453 C-94.4000015258789,6.39900016784668 -106.39900207519531,-5.599999904632568 -121.19999694824219,-5.599999904632568 C-136.00100708007812,-5.599999904632568 -148,6.39900016784668 -148,21.200000762939453 C-148,36.000999450683594 -136.00100708007812,48 -121.19999694824219,48z"></path></g></g><g opacity="1" transform="matrix(1,0,0,1,240.21243286132812,218.72341918945312)"><path fill="rgb(255,0,0)" fill-opacity="1" d=" M-202,48 C-187.19900512695312,48 -175.1999969482422,36.000999450683594 -175.1999969482422,21.200000762939453 C-175.1999969482422,6.39900016784668 -187.19900512695312,-5.599999904632568 -202,-5.599999904632568 C-216.80099487304688,-5.599999904632568 -228.8000030517578,6.39900016784668 -228.8000030517578,21.200000762939453 C-228.8000030517578,36.000999450683594 -216.80099487304688,48 -202,48z"></path><g opacity="1" transform="matrix(1,0,0,1,0,0)"><path stroke-linecap="round" stroke-linejoin="round" fill-opacity="0" stroke="rgb(255,255,255)" stroke-opacity="1" stroke-width="3" d=" M-202,48 C-187.19900512695312,48 -175.1999969482422,36.000999450683594 -175.1999969482422,21.200000762939453 C-175.1999969482422,6.39900016784668 -187.19900512695312,-5.599999904632568 -202,-5.599999904632568 C-216.80099487304688,-5.599999904632568 -228.8000030517578,6.39900016784668 -228.8000030517578,21.200000762939453 C-228.8000030517578,36.000999450683594 -216.80099487304688,48 -202,48z"></path></g></g><g opacity="1" transform="matrix(1,0,0,1,240.76626586914062,200.39111328125)"><path fill="rgb(255,0,0)" fill-opacity="1" d=" M-202,48 C-187.19900512695312,48 -175.1999969482422,36.000999450683594 -175.1999969482422,21.200000762939453 C-175.1999969482422,6.39900016784668 -187.19900512695312,-5.599999904632568 -202,-5.599999904632568 C-216.80099487304688,-5.599999904632568 -228.8000030517578,6.39900016784668 -228.8000030517578,21.200000762939453 C-228.8000030517578,36.000999450683594 -216.80099487304688,48 -202,48z"></path><g opacity="1" transform="matrix(1,0,0,1,0,0)"><path stroke-linecap="round" stroke-linejoin="round" fill-opacity="0" stroke="rgb(255,255,255)" stroke-opacity="1" stroke-width="3" d=" M-202,48 C-187.19900512695312,48 -175.1999969482422,36.000999450683594 -175.1999969482422,21.200000762939453 C-175.1999969482422,6.39900016784668 -187.19900512695312,-5.599999904632568 -202,-5.599999904632568 C-216.80099487304688,-5.599999904632568 -228.8000030517578,6.39900016784668 -228.8000030517578,21.200000762939453 C-228.8000030517578,36.000999450683594 -216.80099487304688,48 -202,48z"></path></g></g></g></g><filter id="__lottie_element_111" filterUnits="objectBoundingBox" x="0%" y="0%" width="100%" height="100%"><feComponentTransfer in="SourceGraphic"><feFuncA type="table" tableValues="1.0 0.0"></feFuncA></feComponentTransfer></filter><mask id="__lottie_element_105_2" mask-type="alpha"><g filter="url(#__lottie_element_111)"><rect width="750" height="750" x="0" y="0" fill="#ffffff" opacity="0"></rect><use xlink:href="#__lottie_element_105"></use></g></mask><g id="__lottie_element_80"><g transform="matrix(1,0,0,1,375.21240234375,353.723388671875)" opacity="1" style="display: block;"><path fill="rgb(255,0,0)" fill-opacity="1" d=" M-202,48 C-187.19900512695312,48 -175.1999969482422,36.000999450683594 -175.1999969482422,21.200000762939453 C-175.1999969482422,6.39900016784668 -187.19900512695312,-5.599999904632568 -202,-5.599999904632568 C-216.80099487304688,-5.599999904632568 -228.8000030517578,6.39900016784668 -228.8000030517578,21.200000762939453 C-228.8000030517578,36.000999450683594 -216.80099487304688,48 -202,48z"></path><g opacity="1" transform="matrix(1,0,0,1,0,0)"><path stroke-linecap="round" stroke-linejoin="round" fill-opacity="0" stroke="rgb(255,255,255)" stroke-opacity="1" stroke-width="3" d=" M-202,48 C-187.19900512695312,48 -175.1999969482422,36.000999450683594 -175.1999969482422,21.200000762939453 C-175.1999969482422,6.39900016784668 -187.19900512695312,-5.599999904632568 -202,-5.599999904632568 C-216.80099487304688,-5.599999904632568 -228.8000030517578,6.39900016784668 -228.8000030517578,21.200000762939453 C-228.8000030517578,36.000999450683594 -216.80099487304688,48 -202,48z"></path></g></g></g><g id="__lottie_element_105"><g transform="matrix(1,0,0,1,135,135)" opacity="1" style="display: block;"><g opacity="1" transform="matrix(1,0,0,1,240,240.00001525878906)"><path fill="rgb(255,0,0)" fill-opacity="1" d=" M202,48 C216.80099487304688,48 228.8000030517578,36.000999450683594 228.8000030517578,21.200000762939453 C228.8000030517578,6.39900016784668 216.80099487304688,-5.599999904632568 202,-5.599999904632568 C187.19900512695312,-5.599999904632568 175.1999969482422,6.39900016784668 175.1999969482422,21.200000762939453 C175.1999969482422,36.000999450683594 187.19900512695312,48 202,48z"></path><g opacity="1" transform="matrix(1,0,0,1,0,0)"><path stroke-linecap="round" stroke-linejoin="round" fill-opacity="0" stroke="rgb(255,255,255)" stroke-opacity="1" stroke-width="3" d=" M202,48 C216.80099487304688,48 228.8000030517578,36.000999450683594 228.8000030517578,21.200000762939453 C228.8000030517578,6.39900016784668 216.80099487304688,-5.599999904632568 202,-5.599999904632568 C187.19900512695312,-5.599999904632568 175.1999969482422,6.39900016784668 175.1999969482422,21.200000762939453 C175.1999969482422,36.000999450683594 187.19900512695312,48 202,48z"></path></g></g><g opacity="1" transform="matrix(1,0,0,1,240.23741149902344,206.72459411621094)"><path fill="rgb(255,0,0)" fill-opacity="1" d=" M121.19999694824219,48 C136.00100708007812,48 148,36.000999450683594 148,21.200000762939453 C148,6.39900016784668 136.00100708007812,-5.599999904632568 121.19999694824219,-5.599999904632568 C106.39900207519531,-5.599999904632568 94.4000015258789,6.39900016784668 94.4000015258789,21.200000762939453 C94.4000015258789,36.000999450683594 106.39900207519531,48 121.19999694824219,48z"></path><g opacity="1" transform="matrix(1,0,0,1,0,0)"><path stroke-linecap="round" stroke-linejoin="round" fill-opacity="0" stroke="rgb(255,255,255)" stroke-opacity="1" stroke-width="3" d=" M121.19999694824219,48 C136.00100708007812,48 148,36.000999450683594 148,21.200000762939453 C148,6.39900016784668 136.00100708007812,-5.599999904632568 121.19999694824219,-5.599999904632568 C106.39900207519531,-5.599999904632568 94.4000015258789,6.39900016784668 94.4000015258789,21.200000762939453 C94.4000015258789,36.000999450683594 106.39900207519531,48 121.19999694824219,48z"></path></g></g><g opacity="1" transform="matrix(1,0,0,1,237.26712036132812,172.8942108154297)"><path fill="rgb(255,0,0)" fill-opacity="1" d=" M40.400001525878906,48 C55.20100021362305,48 67.19999694824219,36.000999450683594 67.19999694824219,21.200000762939453 C67.19999694824219,6.39900016784668 55.20100021362305,-5.599999904632568 40.400001525878906,-5.599999904632568 C25.599000930786133,-5.599999904632568 13.600000381469727,6.39900016784668 13.600000381469727,21.200000762939453 C13.600000381469727,36.000999450683594 25.599000930786133,48 40.400001525878906,48z"></path><g opacity="1" transform="matrix(1,0,0,1,0,0)"><path stroke-linecap="round" stroke-linejoin="round" fill-opacity="0" stroke="rgb(255,255,255)" stroke-opacity="1" stroke-width="3" d=" M40.400001525878906,48 C55.20100021362305,48 67.19999694824219,36.000999450683594 67.19999694824219,21.200000762939453 C67.19999694824219,6.39900016784668 55.20100021362305,-5.599999904632568 40.400001525878906,-5.599999904632568 C25.599000930786133,-5.599999904632568 13.600000381469727,6.39900016784668 13.600000381469727,21.200000762939453 C13.600000381469727,36.000999450683594 25.599000930786133,48 40.400001525878906,48z"></path></g></g><g opacity="1" transform="matrix(1,0,0,1,239.603515625,260.239501953125)"><path fill="rgb(255,0,0)" fill-opacity="1" d=" M-40.400001525878906,48 C-25.599000930786133,48 -13.600000381469727,36.000999450683594 -13.600000381469727,21.200000762939453 C-13.600000381469727,6.39900016784668 -25.599000930786133,-5.599999904632568 -40.400001525878906,-5.599999904632568 C-55.20100021362305,-5.599999904632568 -67.19999694824219,6.39900016784668 -67.19999694824219,21.200000762939453 C-67.19999694824219,36.000999450683594 -55.20100021362305,48 -40.400001525878906,48z"></path><g opacity="1" transform="matrix(1,0,0,1,0,0)"><path stroke-linecap="round" stroke-linejoin="round" fill-opacity="0" stroke="rgb(255,255,255)" stroke-opacity="1" stroke-width="3" d=" M-40.400001525878906,48 C-25.599000930786133,48 -13.600000381469727,36.000999450683594 -13.600000381469727,21.200000762939453 C-13.600000381469727,6.39900016784668 -25.599000930786133,-5.599999904632568 -40.400001525878906,-5.599999904632568 C-55.20100021362305,-5.599999904632568 -67.19999694824219,6.39900016784668 -67.19999694824219,21.200000762939453 C-67.19999694824219,36.000999450683594 -55.20100021362305,48 -40.400001525878906,48z"></path></g></g><g opacity="1" transform="matrix(1,0,0,1,240.202880859375,285.43463134765625)"><path fill="rgb(255,0,0)" fill-opacity="1" d=" M-121.19999694824219,48 C-106.39900207519531,48 -94.4000015258789,36.000999450683594 -94.4000015258789,21.200000762939453 C-94.4000015258789,6.39900016784668 -106.39900207519531,-5.599999904632568 -121.19999694824219,-5.599999904632568 C-136.00100708007812,-5.599999904632568 -148,6.39900016784668 -148,21.200000762939453 C-148,36.000999450683594 -136.00100708007812,48 -121.19999694824219,48z"></path><g opacity="1" transform="matrix(1,0,0,1,0,0)"><path stroke-linecap="round" stroke-linejoin="round" fill-opacity="0" stroke="rgb(255,255,255)" stroke-opacity="1" stroke-width="3" d=" M-121.19999694824219,48 C-106.39900207519531,48 -94.4000015258789,36.000999450683594 -94.4000015258789,21.200000762939453 C-94.4000015258789,6.39900016784668 -106.39900207519531,-5.599999904632568 -121.19999694824219,-5.599999904632568 C-136.00100708007812,-5.599999904632568 -148,6.39900016784668 -148,21.200000762939453 C-148,36.000999450683594 -136.00100708007812,48 -121.19999694824219,48z"></path></g></g><g opacity="1" transform="matrix(1,0,0,1,240.21243286132812,218.72341918945312)"><path fill="rgb(255,0,0)" fill-opacity="1" d=" M-202,48 C-187.19900512695312,48 -175.1999969482422,36.000999450683594 -175.1999969482422,21.200000762939453 C-175.1999969482422,6.39900016784668 -187.19900512695312,-5.599999904632568 -202,-5.599999904632568 C-216.80099487304688,-5.599999904632568 -228.8000030517578,6.39900016784668 -228.8000030517578,21.200000762939453 C-228.8000030517578,36.000999450683594 -216.80099487304688,48 -202,48z"></path><g opacity="1" transform="matrix(1,0,0,1,0,0)"><path stroke-linecap="round" stroke-linejoin="round" fill-opacity="0" stroke="rgb(255,255,255)" stroke-opacity="1" stroke-width="3" d=" M-202,48 C-187.19900512695312,48 -175.1999969482422,36.000999450683594 -175.1999969482422,21.200000762939453 C-175.1999969482422,6.39900016784668 -187.19900512695312,-5.599999904632568 -202,-5.599999904632568 C-216.80099487304688,-5.599999904632568 -228.8000030517578,6.39900016784668 -228.8000030517578,21.200000762939453 C-228.8000030517578,36.000999450683594 -216.80099487304688,48 -202,48z"></path></g></g><g opacity="1" transform="matrix(1,0,0,1,240.76626586914062,200.39111328125)"><path fill="rgb(255,0,0)" fill-opacity="1" d=" M-202,48 C-187.19900512695312,48 -175.1999969482422,36.000999450683594 -175.1999969482422,21.200000762939453 C-175.1999969482422,6.39900016784668 -187.19900512695312,-5.599999904632568 -202,-5.599999904632568 C-216.80099487304688,-5.599999904632568 -228.8000030517578,6.39900016784668 -228.8000030517578,21.200000762939453 C-228.8000030517578,36.000999450683594 -216.80099487304688,48 -202,48z"></path><g opacity="1" transform="matrix(1,0,0,1,0,0)"><path stroke-linecap="round" stroke-linejoin="round" fill-opacity="0" stroke="rgb(255,255,255)" stroke-opacity="1" stroke-width="3" d=" M-202,48 C-187.19900512695312,48 -175.1999969482422,36.000999450683594 -175.1999969482422,21.200000762939453 C-175.1999969482422,6.39900016784668 -187.19900512695312,-5.599999904632568 -202,-5.599999904632568 C-216.80099487304688,-5.599999904632568 -228.8000030517578,6.39900016784668 -228.8000030517578,21.200000762939453 C-228.8000030517578,36.000999450683594 -216.80099487304688,48 -202,48z"></path></g></g></g></g></defs><g clip-path="url(#__lottie_element_75)"><g clip-path="url(#__lottie_element_77)" transform="matrix(1,0,0,1,-136.1999969482422,-123.93699645996094)" opacity="1" style="display: block;"><g mask="url(#__lottie_element_105_2)" style="display: block;"><g transform="matrix(1,0,0,1,135,135)" opacity="1"><g opacity="1" transform="matrix(1,0,0,1,240,240.00001525878906)"><g opacity="1" transform="matrix(1,0,0,1,0,0)"><path stroke-linecap="round" stroke-linejoin="round" fill-opacity="0" stroke="#121212" stroke-opacity="1" stroke-width="3px" d=" M121.5999984741211,48 C121.5999984741211,139.89999389648438 67.33699798583984,214.39999389648438 0.4000000059604645,214.39999389648438 C-66.53700256347656,214.39999389648438 -120.80000305175781,139.89999389648438 -120.80000305175781,48"></path></g></g><g opacity="1" transform="matrix(1,0,0,1,240,239.99998474121094)"><g opacity="1" transform="matrix(1,0,0,1,0,0)"><path stroke-linecap="round" stroke-linejoin="round" fill-opacity="0" stroke="#121212" stroke-opacity="1" stroke-width="3px" d=" M40.79999923706055,48 C40.79999923706055,86.43900299072266 22.711999893188477,117.5999984741211 0.4000000059604645,117.5999984741211 C-21.91200065612793,117.5999984741211 -40,86.43900299072266 -40,48"></path></g></g><g opacity="1" transform="matrix(1,0,0,1,240,240)"><g opacity="1" transform="matrix(1,0,0,1,0,0)"><path stroke-linecap="round" stroke-linejoin="round" fill-opacity="0" stroke="#121212" stroke-opacity="1" stroke-width="3px" d=" M202.4219970703125,21.2189998626709 C202.4219970703125,21.2189998626709 202.39999389648438,-2.562999963760376 202.39999389648438,-5.599999904632568 C202.39999389648438,-44.03900146484375 184.31199645996094,-75.19999694824219 162,-75.19999694824219 C139.68800354003906,-75.19999694824219 121.5999984741211,-44.03900146484375 121.5999984741211,-5.599999904632568 C121.5999984741211,-5.599999904632568 121.625,47.90599822998047 121.625,47.90599822998047"></path></g></g><g opacity="1" transform="matrix(1,0,0,1,240,240)"><g opacity="1" transform="matrix(1,0,0,1,0,0)"><path stroke-linecap="round" stroke-linejoin="round" fill-opacity="0" stroke="#121212" stroke-opacity="1" stroke-width="3px" d=" M40.797000885009766,47.89099884033203 C40.797000885009766,47.89099884033203 40.8120002746582,21.200000762939453 40.79999923706055,-5.599999904632568 C40.79999923706055,-120.91699981689453 -13.463000297546387,-214.39999389648438 -80.4000015258789,-214.39999389648438 C-147.33700561523438,-214.39999389648438 -201.60000610351562,-120.91699981689453 -201.60000610351562,-5.599999904632568"></path></g></g><g opacity="1" transform="matrix(1,0,0,1,240,240)"><g opacity="1" transform="matrix(1,0,0,1,0,0)"><path stroke-linecap="round" stroke-linejoin="round" fill-opacity="0" stroke="#121212" stroke-opacity="1" stroke-width="3px" d=" M-39.96900177001953,47.9379997253418 C-39.96900177001953,47.9379997253418 -39.875,21.200000762939453 -40,-5.599999904632568 C-40,-82.47799682617188 -76.17500305175781,-144.8000030517578 -120.80000305175781,-144.8000030517578 C-165.4250030517578,-144.8000030517578 -201.60000610351562,-82.47799682617188 -201.60000610351562,-5.599999904632568"></path></g></g><g opacity="1" transform="matrix(1,0,0,1,240,240)"><g opacity="1" transform="matrix(1,0,0,1,0,0)"><path stroke-linecap="round" stroke-linejoin="round" fill-opacity="0" stroke="#121212" stroke-opacity="1" stroke-width="3px" d=" M-120.81199645996094,47.96900177001953 C-120.81199645996094,47.96900177001953 -120.80000305175781,32.8390007019043 -120.80000305175781,-5.599999904632568 C-120.80000305175781,-44.03900146484375 -138.88800048828125,-75.19999694824219 -161.1999969482422,-75.19999694824219 C-183.51199340820312,-75.19999694824219 -201.60000610351562,-44.03900146484375 -201.60000610351562,-5.599999904632568"></path></g></g></g></g><g transform="matrix(1,0,0,1,375,375)" opacity="1" style="display: block;"><g opacity="1" transform="matrix(1,0,0,1,0,0)"><path stroke-linecap="round" stroke-linejoin="round" fill-opacity="0" stroke="#121212" stroke-opacity="1" stroke-width="3px" d=" M202,48 C216.80099487304688,48 228.8000030517578,36.000999450683594 228.8000030517578,21.200000762939453 C228.8000030517578,6.39900016784668 216.80099487304688,-5.599999904632568 202,-5.599999904632568 C187.19900512695312,-5.599999904632568 175.1999969482422,6.39900016784668 175.1999969482422,21.200000762939453 C175.1999969482422,36.000999450683594 187.19900512695312,48 202,48z"></path></g></g><g transform="matrix(1,0,0,1,375.2374267578125,341.7245788574219)" opacity="1" style="display: block;"><g opacity="1" transform="matrix(1,0,0,1,0,0)"><path stroke-linecap="round" stroke-linejoin="round" fill-opacity="0" stroke="#121212" stroke-opacity="1" stroke-width="3px" d=" M121.19999694824219,48 C136.00100708007812,48 148,36.000999450683594 148,21.200000762939453 C148,6.39900016784668 136.00100708007812,-5.599999904632568 121.19999694824219,-5.599999904632568 C106.39900207519531,-5.599999904632568 94.4000015258789,6.39900016784668 94.4000015258789,21.200000762939453 C94.4000015258789,36.000999450683594 106.39900207519531,48 121.19999694824219,48z"></path></g></g><g transform="matrix(1,0,0,1,372.2671203613281,307.8941955566406)" opacity="1" style="display: block;"><g opacity="1" transform="matrix(1,0,0,1,0,0)"><path stroke-linecap="round" stroke-linejoin="round" fill-opacity="0" stroke="#121212" stroke-opacity="1" stroke-width="3px" d=" M40.400001525878906,48 C55.20100021362305,48 67.19999694824219,36.000999450683594 67.19999694824219,21.200000762939453 C67.19999694824219,6.39900016784668 55.20100021362305,-5.599999904632568 40.400001525878906,-5.599999904632568 C25.599000930786133,-5.599999904632568 13.600000381469727,6.39900016784668 13.600000381469727,21.200000762939453 C13.600000381469727,36.000999450683594 25.599000930786133,48 40.400001525878906,48z"></path></g></g><g transform="matrix(1,0,0,1,374.603515625,395.239501953125)" opacity="1" style="display: block;"><g opacity="1" transform="matrix(1,0,0,1,0,0)"><path stroke-linecap="round" stroke-linejoin="round" fill-opacity="0" stroke="#121212" stroke-opacity="1" stroke-width="3px" d=" M-40.400001525878906,48 C-25.599000930786133,48 -13.600000381469727,36.000999450683594 -13.600000381469727,21.200000762939453 C-13.600000381469727,6.39900016784668 -25.599000930786133,-5.599999904632568 -40.400001525878906,-5.599999904632568 C-55.20100021362305,-5.599999904632568 -67.19999694824219,6.39900016784668 -67.19999694824219,21.200000762939453 C-67.19999694824219,36.000999450683594 -55.20100021362305,48 -40.400001525878906,48z"></path></g></g><g transform="matrix(1,0,0,1,375.202880859375,420.43463134765625)" opacity="1" style="display: block;"><g opacity="1" transform="matrix(1,0,0,1,0,0)"><path stroke-linecap="round" stroke-linejoin="round" fill-opacity="0" stroke="#121212" stroke-opacity="1" stroke-width="3px" d=" M-121.19999694824219,48 C-106.39900207519531,48 -94.4000015258789,36.000999450683594 -94.4000015258789,21.200000762939453 C-94.4000015258789,6.39900016784668 -106.39900207519531,-5.599999904632568 -121.19999694824219,-5.599999904632568 C-136.00100708007812,-5.599999904632568 -148,6.39900016784668 -148,21.200000762939453 C-148,36.000999450683594 -136.00100708007812,48 -121.19999694824219,48z"></path></g></g><g transform="matrix(1,0,0,1,375.21240234375,353.723388671875)" opacity="1" style="display: block;"><g opacity="1" transform="matrix(1,0,0,1,0,0)"><path stroke-linecap="round" stroke-linejoin="round" fill-opacity="0" stroke="#121212" stroke-opacity="1" stroke-width="3px" d=" M-202,48 C-187.19900512695312,48 -175.1999969482422,36.000999450683594 -175.1999969482422,21.200000762939453 C-175.1999969482422,6.39900016784668 -187.19900512695312,-5.599999904632568 -202,-5.599999904632568 C-216.80099487304688,-5.599999904632568 -228.8000030517578,6.39900016784668 -228.8000030517578,21.200000762939453 C-228.8000030517578,36.000999450683594 -216.80099487304688,48 -202,48z"></path></g></g><g mask="url(#__lottie_element_80_2)" style="display: block;"><g transform="matrix(1,0,0,1,375.7662353515625,335.39111328125)" opacity="1"><g opacity="1" transform="matrix(1,0,0,1,0,0)"><path stroke-linecap="round" stroke-linejoin="round" fill-opacity="0" stroke="#121212" stroke-opacity="1" stroke-width="3px" d=" M-202,48 C-187.19900512695312,48 -175.1999969482422,36.000999450683594 -175.1999969482422,21.200000762939453 C-175.1999969482422,6.39900016784668 -187.19900512695312,-5.599999904632568 -202,-5.599999904632568 C-216.80099487304688,-5.599999904632568 -228.8000030517578,6.39900016784668 -228.8000030517578,21.200000762939453 C-228.8000030517578,36.000999450683594 -216.80099487304688,48 -202,48z"></path></g></g></g></g></g></svg>