<svg xmlns="http://www.w3.org/2000/svg" xmlns:xlink="http://www.w3.org/1999/xlink" viewBox="0 0 580 580" width="580" height="580" preserveAspectRatio="xMidYMid meet" style="width: 100%; height: 100%; transform: translate3d(0px, 0px, 0px); content-visibility: visible;"><defs><clipPath id="__lottie_element_54"><rect width="580" height="580" x="0" y="0"></rect></clipPath><clipPath id="__lottie_element_56"><path d="M0,0 L750,0 L750,750 L0,750z"></path></clipPath><g id="__lottie_element_68"><g transform="matrix(1,0,0,1,375,375)" opacity="1" style="display: block;"><g opacity="1" transform="matrix(1,0,0,1,0,0)"><path fill="rgb(249,251,251)" fill-opacity="1" d=" M0.2832116186618805,26.8367977142334 C0.2632116377353668,26.85279655456543 0.2652116119861603,26.87892723083496 0.2652116119861603,26.87892723083496 C0.2652116119861603,26.87892723083496 0.2742116153240204,26.881797790527344 0.2842116355895996,26.881797790527344 C0.2932116389274597,26.881797790527344 0.30221161246299744,26.87879753112793 0.30221161246299744,26.87879753112793 C0.30221161246299744,26.87879753112793 0.30321162939071655,26.85479736328125 0.2832116186618805,26.8367977142334z"></path></g></g></g><mask id="__lottie_element_68_1" mask-type="alpha"><use xlink:href="#__lottie_element_68"></use></mask><g id="__lottie_element_68"><g transform="matrix(1,0,0,1,375,375)" opacity="1" style="display: block;"><g opacity="1" transform="matrix(1,0,0,1,0,0)"><path fill="rgb(249,251,251)" fill-opacity="1" d=" M0.2832116186618805,26.8367977142334 C0.2632116377353668,26.85279655456543 0.2652116119861603,26.87892723083496 0.2652116119861603,26.87892723083496 C0.2652116119861603,26.87892723083496 0.2742116153240204,26.881797790527344 0.2842116355895996,26.881797790527344 C0.2932116389274597,26.881797790527344 0.30221161246299744,26.87879753112793 0.30221161246299744,26.87879753112793 C0.30221161246299744,26.87879753112793 0.30321162939071655,26.85479736328125 0.2832116186618805,26.8367977142334z"></path></g></g></g></defs><g clip-path="url(#__lottie_element_54)"><g clip-path="url(#__lottie_element_56)" transform="matrix(1,0,0,1,-87.67898559570312,-138.19900512695312)" opacity="1" style="display: block;"><g mask="url(#__lottie_element_68_1)" style="display: block;"><g transform="matrix(1,0,0,1,135.00001525878906,135.00001525878906)" opacity="1"><g opacity="1" transform="matrix(1,0,0,1,240.40000915527344,240.4010009765625)"><g opacity="1" transform="matrix(1,0,0,1,0,0)"><path stroke-linecap="round" stroke-linejoin="round" fill-opacity="0" stroke="#121212" stroke-opacity="1" stroke-width="3px" d=" M44.724998474121094,35.46699905395508 C44.724998474121094,35.46699905395508 8.487000465393066,56.38999938964844 8.487000465393066,56.38999938964844"></path></g></g><g opacity="1" transform="matrix(1,0,0,1,240.39999389648438,240.39999389648438)"><g opacity="1" transform="matrix(1,0,0,1,0,0)"><path stroke-linecap="round" stroke-linejoin="round" fill-opacity="0" stroke="#121212" stroke-opacity="1" stroke-width="3px" d=" M41.724998474121094,23.410999298095703 C41.724998474121094,23.410999298095703 -14.524999618530273,55.887001037597656 -14.524999618530273,55.887001037597656"></path></g></g><g opacity="1" transform="matrix(1,0,0,1,240.39999389648438,240.40000915527344)"><g opacity="1" transform="matrix(1,0,0,1,0,0)"><path stroke-linecap="round" stroke-linejoin="round" fill-opacity="0" stroke="#121212" stroke-opacity="1" stroke-width="3px" d=" M37.21900177001953,12.225000381469727 C37.21900177001953,12.225000381469727 -31.774999618530273,52.05799865722656 -31.774999618530273,52.05799865722656"></path></g></g><g opacity="1" transform="matrix(1,0,0,1,240.39999389648438,240.39999389648438)"><g opacity="1" transform="matrix(1,0,0,1,0,0)"><path stroke-linecap="round" stroke-linejoin="round" fill-opacity="0" stroke="#121212" stroke-opacity="1" stroke-width="3px" d=" M31.523000717163086,1.725000023841858 C31.523000717163086,1.725000023841858 -47.28499984741211,47.224998474121094 -47.28499984741211,47.224998474121094"></path></g></g><g opacity="1" transform="matrix(1,0,0,1,240.39999389648438,240.40000915527344)"><g opacity="1" transform="matrix(1,0,0,1,0,0)"><path stroke-linecap="round" stroke-linejoin="round" fill-opacity="0" stroke="#121212" stroke-opacity="1" stroke-width="3px" d=" M24.72800064086914,-8.140000343322754 C24.72800064086914,-8.140000343322754 -43.58700180053711,31.302000045776367 -43.58700180053711,31.302000045776367"></path></g></g><g opacity="1" transform="matrix(1,0,0,1,240.40000915527344,240.39999389648438)"><g opacity="1" transform="matrix(1,0,0,1,0,0)"><path stroke-linecap="round" stroke-linejoin="round" fill-opacity="0" stroke="#121212" stroke-opacity="1" stroke-width="3px" d=" M17.739999771118164,-17.89299964904785 C17.739999771118164,-17.89299964904785 -38.525001525878906,14.590999603271484 -38.525001525878906,14.590999603271484"></path></g></g><g opacity="1" transform="matrix(1,0,0,1,240.39999389648438,240.39999389648438)"><g opacity="1" transform="matrix(1,0,0,1,0,0)"><path stroke-linecap="round" stroke-linejoin="round" fill-opacity="0" stroke="#121212" stroke-opacity="1" stroke-width="3px" d=" M8.883000373840332,-26.56800079345703 C8.883000373840332,-26.56800079345703 -27.524999618530273,-5.547999858856201 -27.524999618530273,-5.547999858856201"></path></g></g></g></g><g transform="matrix(1,0,0,1,-72.88232421875,205.23333740234375)" opacity="1" style="display: block;"><g opacity="1" transform="matrix(1,0,0,1,240.40000915527344,240.39999389648438)"><g opacity="1" transform="matrix(1,0,0,1,0,0)"><path stroke-linecap="round" stroke-linejoin="round" fill-opacity="0" stroke="#121212" stroke-opacity="1" stroke-width="3px" d=" M0,-34.33100128173828 C19.35099983215332,-48.52199935913086 43.222999572753906,-56.9010009765625 69.05000305175781,-56.9010009765625 C133.63999938964844,-56.9010009765625 186,-4.494999885559082 186,60.150001525878906 C186,124.79499816894531 133.63999938964844,177.1999969482422 69.05000305175781,177.1999969482422 C4.460000038146973,177.1999969482422 -47.900001525878906,124.79499816894531 -47.900001525878906,60.150001525878906 C-47.900001525878906,55.68299865722656 -47.650001525878906,51.27399826049805 -47.16299819946289,46.9370002746582"></path></g></g><g opacity="1" transform="matrix(1,0,0,1,240.39898681640625,240.40000915527344)"><g opacity="1" transform="matrix(1,0,0,1,0,0)"><path stroke-linecap="round" stroke-linejoin="round" fill-opacity="0" stroke="#121212" stroke-opacity="1" stroke-width="3px" d=" M0,-34.33100128173828 C-25.697999954223633,-15.486000061035156 -43.422000885009766,13.609000205993652 -47.16299819946289,46.9370002746582"></path></g></g></g><g transform="matrix(1,0,0,1,203.79473876953125,-35.294097900390625)" opacity="1" style="display: block;"><g opacity="1" transform="matrix(1,0,0,1,240.40000915527344,240.39999389648438)"><g opacity="1" transform="matrix(1,0,0,1,0,0)"><path stroke-linecap="round" stroke-linejoin="round" fill-opacity="0" stroke="#121212" stroke-opacity="1" stroke-width="3px" d=" M0,-34.33100128173828 C-19.35099983215332,-48.52199935913086 -43.222999572753906,-56.9010009765625 -69.05000305175781,-56.9010009765625 C-133.63999938964844,-56.9010009765625 -186,-4.494999885559082 -186,60.150001525878906 C-186,124.79499816894531 -133.63999938964844,177.1999969482422 -69.05000305175781,177.1999969482422 C-4.460000038146973,177.1999969482422 47.900001525878906,124.79499816894531 47.900001525878906,60.150001525878906 C47.900001525878906,55.71699905395508 47.65299987792969,51.34199905395508 47.17399978637695,47.0369987487793"></path></g></g><g opacity="1" transform="matrix(1,0,0,1,240.39999389648438,240.4010009765625)"><g opacity="1" transform="matrix(1,0,0,1,0,0)"><path stroke-linecap="round" stroke-linejoin="round" fill-opacity="0" stroke="#121212" stroke-opacity="1" stroke-width="3px" d=" M0,-34.33100128173828 C25.724000930786133,-15.467000007629395 43.457000732421875,13.666999816894531 47.17399978637695,47.0369987487793"></path></g></g></g><g transform="matrix(1,0,0,1,274.14727783203125,324.95770263671875)" opacity="1" style="display: block;"><g opacity="1" transform="matrix(1,0,0,1,240.40000915527344,240.39999389648438)"><g opacity="1" transform="matrix(1,0,0,1,0,0)"><path stroke-linecap="round" stroke-linejoin="round" fill-opacity="0" stroke="#121212" stroke-opacity="1" stroke-width="3px" d=" M47.17399978637695,47.0369987487793 C51.03900146484375,45.33100128173828 54.849998474121094,43.400001525878906 58.590999603271484,41.237998962402344 C114.5270004272461,8.914999961853027 133.6929931640625,-62.67100143432617 101.39800262451172,-118.65499877929688 C69.10299682617188,-174.63900756835938 -2.421999931335449,-193.82200622558594 -58.358001708984375,-161.49899291992188 C-114.29399871826172,-129.17599487304688 -133.4600067138672,-57.5890007019043 -101.16500091552734,-1.6050000190734863 C-88.26200103759766,20.763999938964844 -69.09500122070312,37.25699996948242 -47.16299819946289,46.9370002746582"></path></g></g><g opacity="1" transform="matrix(1,0,0,1,240.3990020751953,240.39999389648438)"><g opacity="1" transform="matrix(1,0,0,1,0,0)"><path stroke-linecap="round" stroke-linejoin="round" fill-opacity="0" stroke="#121212" stroke-opacity="1" stroke-width="3px" d=" M47.17399978637695,47.0369987487793 C16.347000122070312,60.641998291015625 -17.875,59.86399841308594 -47.16299819946289,46.9370002746582"></path></g></g></g></g></g></svg>