<svg xmlns="http://www.w3.org/2000/svg" xmlns:xlink="http://www.w3.org/1999/xlink" viewBox="0 0 580 580" width="580" height="580" preserveAspectRatio="xMidYMid meet" style="width: 100%; height: 100%; transform: translate3d(0px, 0px, 0px); content-visibility: visible;"><defs><clipPath id="__lottie_element_148"><rect width="580" height="580" x="0" y="0"></rect></clipPath><clipPath id="__lottie_element_150"><path d="M0,0 L750,0 L750,750 L0,750z"></path></clipPath><g id="__lottie_element_171"><g clip-path="url(#__lottie_element_172)" transform="matrix(1,0,0,1,0,0)" opacity="1" style="display: block;"><g transform="matrix(1,0,0,1,374.471435546875,374.7971496582031)" opacity="1" style="display: block;"><path fill="rgb(255,255,255)" fill-opacity="1" d=" M231.99200439453125,114.0530014038086 C231.99200439453125,140.6790008544922 210.4080047607422,162.26300048828125 183.78199768066406,162.26300048828125 C157.156005859375,162.26300048828125 135.572998046875,140.6790008544922 135.572998046875,114.0530014038086 C135.572998046875,87.427001953125 157.156005859375,65.84400177001953 183.78199768066406,65.84400177001953 C210.4080047607422,65.84400177001953 231.99200439453125,87.427001953125 231.99200439453125,114.0530014038086z"></path><g opacity="1" transform="matrix(1,0,0,1,0,0)"><path stroke-linecap="round" stroke-linejoin="round" fill-opacity="0" stroke="rgb(255,255,255)" stroke-opacity="1" stroke-width="3" d=" M231.99200439453125,114.0530014038086 C231.99200439453125,140.6790008544922 210.4080047607422,162.26300048828125 183.78199768066406,162.26300048828125 C157.156005859375,162.26300048828125 135.572998046875,140.6790008544922 135.572998046875,114.0530014038086 C135.572998046875,87.427001953125 157.156005859375,65.84400177001953 183.78199768066406,65.84400177001953 C210.4080047607422,65.84400177001953 231.99200439453125,87.427001953125 231.99200439453125,114.0530014038086z"></path></g></g><g transform="matrix(1,0,0,1,374.4053039550781,374.3765563964844)" opacity="1" style="display: block;"><path fill="rgb(255,255,255)" fill-opacity="1" d=" M231.1199951171875,-66.09200286865234 C231.1199951171875,-92.71800231933594 209.53599548339844,-114.302001953125 182.91000366210938,-114.302001953125 C156.28399658203125,-114.302001953125 134.6999969482422,-92.71800231933594 134.6999969482422,-66.09200286865234 C134.6999969482422,-39.465999603271484 156.28399658203125,-17.882999420166016 182.91000366210938,-17.882999420166016 C209.53599548339844,-17.882999420166016 231.1199951171875,-39.465999603271484 231.1199951171875,-66.09200286865234z"></path><g opacity="1" transform="matrix(1,0,0,1,0,0)"><path stroke-linecap="round" stroke-linejoin="round" fill-opacity="0" stroke="rgb(255,255,255)" stroke-opacity="1" stroke-width="3" d=" M231.1199951171875,-66.09200286865234 C231.1199951171875,-92.71800231933594 209.53599548339844,-114.302001953125 182.91000366210938,-114.302001953125 C156.28399658203125,-114.302001953125 134.6999969482422,-92.71800231933594 134.6999969482422,-66.09200286865234 C134.6999969482422,-39.465999603271484 156.28399658203125,-17.882999420166016 182.91000366210938,-17.882999420166016 C209.53599548339844,-17.882999420166016 231.1199951171875,-39.465999603271484 231.1199951171875,-66.09200286865234z"></path></g></g><g transform="matrix(1,0,0,1,374.864501953125,374.5428771972656)" opacity="1" style="display: block;"><path fill="rgb(255,255,255)" fill-opacity="1" d=" M129.7030029296875,25.329999923706055 C129.7030029296875,-1.2960000038146973 108.11900329589844,-22.878999710083008 81.49299621582031,-22.878999710083008 C54.867000579833984,-22.878999710083008 33.284000396728516,-1.2960000038146973 33.284000396728516,25.329999923706055 C33.284000396728516,51.95600128173828 54.867000579833984,73.54000091552734 81.49299621582031,73.54000091552734 C108.11900329589844,73.54000091552734 129.7030029296875,51.95600128173828 129.7030029296875,25.329999923706055z"></path><g opacity="1" transform="matrix(1,0,0,1,0,0)"><path stroke-linecap="round" stroke-linejoin="round" fill-opacity="0" stroke="rgb(255,255,255)" stroke-opacity="1" stroke-width="3" d=" M129.7030029296875,25.329999923706055 C129.7030029296875,-1.2960000038146973 108.11900329589844,-22.878999710083008 81.49299621582031,-22.878999710083008 C54.867000579833984,-22.878999710083008 33.284000396728516,-1.2960000038146973 33.284000396728516,25.329999923706055 C33.284000396728516,51.95600128173828 54.867000579833984,73.54000091552734 81.49299621582031,73.54000091552734 C108.11900329589844,73.54000091552734 129.7030029296875,51.95600128173828 129.7030029296875,25.329999923706055z"></path></g></g><g transform="matrix(1,0,0,1,374.5810546875,374.93658447265625)" opacity="1" style="display: block;"><path fill="rgb(255,255,255)" fill-opacity="1" d=" M11.302000045776367,32.32500076293945 C11.302000045776367,5.698999881744385 -10.281999588012695,-15.885000228881836 -36.90800094604492,-15.885000228881836 C-63.534000396728516,-15.885000228881836 -85.11799621582031,5.698999881744385 -85.11799621582031,32.32500076293945 C-85.11799621582031,58.95100021362305 -63.534000396728516,80.53399658203125 -36.90800094604492,80.53399658203125 C-10.281999588012695,80.53399658203125 11.302000045776367,58.95100021362305 11.302000045776367,32.32500076293945z"></path><g opacity="1" transform="matrix(1,0,0,1,0,0)"><path stroke-linecap="round" stroke-linejoin="round" fill-opacity="0" stroke="rgb(255,255,255)" stroke-opacity="1" stroke-width="3" d=" M11.302000045776367,32.32500076293945 C11.302000045776367,5.698999881744385 -10.281999588012695,-15.885000228881836 -36.90800094604492,-15.885000228881836 C-63.534000396728516,-15.885000228881836 -85.11799621582031,5.698999881744385 -85.11799621582031,32.32500076293945 C-85.11799621582031,58.95100021362305 -63.534000396728516,80.53399658203125 -36.90800094604492,80.53399658203125 C-10.281999588012695,80.53399658203125 11.302000045776367,58.95100021362305 11.302000045776367,32.32500076293945z"></path></g></g><g transform="matrix(1,0,0,1,374.6011047363281,375.2462158203125)" opacity="1" style="display: block;"><g opacity="1" transform="matrix(1,0,0,1,0,0)"><path fill="rgb(255,255,255)" fill-opacity="1" d=" M-48.14500045776367,-114.0530014038086 C-48.14500045776367,-140.6790008544922 -69.72899627685547,-162.26300048828125 -96.3550033569336,-162.26300048828125 C-122.98100280761719,-162.26300048828125 -144.56500244140625,-140.6790008544922 -144.56500244140625,-114.0530014038086 C-144.56500244140625,-87.427001953125 -122.98100280761719,-65.84400177001953 -96.3550033569336,-65.84400177001953 C-69.72899627685547,-65.84400177001953 -48.14500045776367,-87.427001953125 -48.14500045776367,-114.0530014038086z"></path><path stroke-linecap="round" stroke-linejoin="round" fill-opacity="0" stroke="rgb(255,255,255)" stroke-opacity="1" stroke-width="3" d=" M-48.14500045776367,-114.0530014038086 C-48.14500045776367,-140.6790008544922 -69.72899627685547,-162.26300048828125 -96.3550033569336,-162.26300048828125 C-122.98100280761719,-162.26300048828125 -144.56500244140625,-140.6790008544922 -144.56500244140625,-114.0530014038086 C-144.56500244140625,-87.427001953125 -122.98100280761719,-65.84400177001953 -96.3550033569336,-65.84400177001953 C-69.72899627685547,-65.84400177001953 -48.14500045776367,-87.427001953125 -48.14500045776367,-114.0530014038086z"></path></g></g><g transform="matrix(1,0,0,1,375.3409423828125,375.1082763671875)" opacity="1" style="display: block;"><path fill="rgb(255,255,255)" fill-opacity="1" d=" M-135.572998046875,13.340999603271484 C-135.572998046875,-13.28499984741211 -157.156005859375,-34.86899948120117 -183.78199768066406,-34.86899948120117 C-210.4080047607422,-34.86899948120117 -231.99200439453125,-13.28499984741211 -231.99200439453125,13.340999603271484 C-231.99200439453125,39.96699905395508 -210.4080047607422,61.54999923706055 -183.78199768066406,61.54999923706055 C-157.156005859375,61.54999923706055 -135.572998046875,39.96699905395508 -135.572998046875,13.340999603271484z"></path><g opacity="1" transform="matrix(1,0,0,1,0,0)"><path stroke-linecap="round" stroke-linejoin="round" fill-opacity="0" stroke="rgb(255,255,255)" stroke-opacity="1" stroke-width="3" d=" M-135.572998046875,13.340999603271484 C-135.572998046875,-13.28499984741211 -157.156005859375,-34.86899948120117 -183.78199768066406,-34.86899948120117 C-210.4080047607422,-34.86899948120117 -231.99200439453125,-13.28499984741211 -231.99200439453125,13.340999603271484 C-231.99200439453125,39.96699905395508 -210.4080047607422,61.54999923706055 -183.78199768066406,61.54999923706055 C-157.156005859375,61.54999923706055 -135.572998046875,39.96699905395508 -135.572998046875,13.340999603271484z"></path></g></g></g></g><clipPath id="__lottie_element_172"><path d="M0,0 L750,0 L750,750 L0,750z"></path></clipPath><filter id="__lottie_element_196" filterUnits="objectBoundingBox" x="0%" y="0%" width="100%" height="100%"><feComponentTransfer in="SourceGraphic"><feFuncA type="table" tableValues="1.0 0.0"></feFuncA></feComponentTransfer></filter><mask id="__lottie_element_171_2" mask-type="alpha"><g filter="url(#__lottie_element_196)"><rect width="750" height="750" x="0" y="0" fill="#ffffff" opacity="0"></rect><use xlink:href="#__lottie_element_171"></use></g></mask><g id="__lottie_element_171"><g clip-path="url(#__lottie_element_172)" transform="matrix(1,0,0,1,0,0)" opacity="1" style="display: block;"><g transform="matrix(1,0,0,1,374.471435546875,374.7971496582031)" opacity="1" style="display: block;"><path fill="rgb(255,255,255)" fill-opacity="1" d=" M231.99200439453125,114.0530014038086 C231.99200439453125,140.6790008544922 210.4080047607422,162.26300048828125 183.78199768066406,162.26300048828125 C157.156005859375,162.26300048828125 135.572998046875,140.6790008544922 135.572998046875,114.0530014038086 C135.572998046875,87.427001953125 157.156005859375,65.84400177001953 183.78199768066406,65.84400177001953 C210.4080047607422,65.84400177001953 231.99200439453125,87.427001953125 231.99200439453125,114.0530014038086z"></path><g opacity="1" transform="matrix(1,0,0,1,0,0)"><path stroke-linecap="round" stroke-linejoin="round" fill-opacity="0" stroke="rgb(255,255,255)" stroke-opacity="1" stroke-width="3" d=" M231.99200439453125,114.0530014038086 C231.99200439453125,140.6790008544922 210.4080047607422,162.26300048828125 183.78199768066406,162.26300048828125 C157.156005859375,162.26300048828125 135.572998046875,140.6790008544922 135.572998046875,114.0530014038086 C135.572998046875,87.427001953125 157.156005859375,65.84400177001953 183.78199768066406,65.84400177001953 C210.4080047607422,65.84400177001953 231.99200439453125,87.427001953125 231.99200439453125,114.0530014038086z"></path></g></g><g transform="matrix(1,0,0,1,374.4053039550781,374.3765563964844)" opacity="1" style="display: block;"><path fill="rgb(255,255,255)" fill-opacity="1" d=" M231.1199951171875,-66.09200286865234 C231.1199951171875,-92.71800231933594 209.53599548339844,-114.302001953125 182.91000366210938,-114.302001953125 C156.28399658203125,-114.302001953125 134.6999969482422,-92.71800231933594 134.6999969482422,-66.09200286865234 C134.6999969482422,-39.465999603271484 156.28399658203125,-17.882999420166016 182.91000366210938,-17.882999420166016 C209.53599548339844,-17.882999420166016 231.1199951171875,-39.465999603271484 231.1199951171875,-66.09200286865234z"></path><g opacity="1" transform="matrix(1,0,0,1,0,0)"><path stroke-linecap="round" stroke-linejoin="round" fill-opacity="0" stroke="rgb(255,255,255)" stroke-opacity="1" stroke-width="3" d=" M231.1199951171875,-66.09200286865234 C231.1199951171875,-92.71800231933594 209.53599548339844,-114.302001953125 182.91000366210938,-114.302001953125 C156.28399658203125,-114.302001953125 134.6999969482422,-92.71800231933594 134.6999969482422,-66.09200286865234 C134.6999969482422,-39.465999603271484 156.28399658203125,-17.882999420166016 182.91000366210938,-17.882999420166016 C209.53599548339844,-17.882999420166016 231.1199951171875,-39.465999603271484 231.1199951171875,-66.09200286865234z"></path></g></g><g transform="matrix(1,0,0,1,374.864501953125,374.5428771972656)" opacity="1" style="display: block;"><path fill="rgb(255,255,255)" fill-opacity="1" d=" M129.7030029296875,25.329999923706055 C129.7030029296875,-1.2960000038146973 108.11900329589844,-22.878999710083008 81.49299621582031,-22.878999710083008 C54.867000579833984,-22.878999710083008 33.284000396728516,-1.2960000038146973 33.284000396728516,25.329999923706055 C33.284000396728516,51.95600128173828 54.867000579833984,73.54000091552734 81.49299621582031,73.54000091552734 C108.11900329589844,73.54000091552734 129.7030029296875,51.95600128173828 129.7030029296875,25.329999923706055z"></path><g opacity="1" transform="matrix(1,0,0,1,0,0)"><path stroke-linecap="round" stroke-linejoin="round" fill-opacity="0" stroke="rgb(255,255,255)" stroke-opacity="1" stroke-width="3" d=" M129.7030029296875,25.329999923706055 C129.7030029296875,-1.2960000038146973 108.11900329589844,-22.878999710083008 81.49299621582031,-22.878999710083008 C54.867000579833984,-22.878999710083008 33.284000396728516,-1.2960000038146973 33.284000396728516,25.329999923706055 C33.284000396728516,51.95600128173828 54.867000579833984,73.54000091552734 81.49299621582031,73.54000091552734 C108.11900329589844,73.54000091552734 129.7030029296875,51.95600128173828 129.7030029296875,25.329999923706055z"></path></g></g><g transform="matrix(1,0,0,1,374.5810546875,374.93658447265625)" opacity="1" style="display: block;"><path fill="rgb(255,255,255)" fill-opacity="1" d=" M11.302000045776367,32.32500076293945 C11.302000045776367,5.698999881744385 -10.281999588012695,-15.885000228881836 -36.90800094604492,-15.885000228881836 C-63.534000396728516,-15.885000228881836 -85.11799621582031,5.698999881744385 -85.11799621582031,32.32500076293945 C-85.11799621582031,58.95100021362305 -63.534000396728516,80.53399658203125 -36.90800094604492,80.53399658203125 C-10.281999588012695,80.53399658203125 11.302000045776367,58.95100021362305 11.302000045776367,32.32500076293945z"></path><g opacity="1" transform="matrix(1,0,0,1,0,0)"><path stroke-linecap="round" stroke-linejoin="round" fill-opacity="0" stroke="rgb(255,255,255)" stroke-opacity="1" stroke-width="3" d=" M11.302000045776367,32.32500076293945 C11.302000045776367,5.698999881744385 -10.281999588012695,-15.885000228881836 -36.90800094604492,-15.885000228881836 C-63.534000396728516,-15.885000228881836 -85.11799621582031,5.698999881744385 -85.11799621582031,32.32500076293945 C-85.11799621582031,58.95100021362305 -63.534000396728516,80.53399658203125 -36.90800094604492,80.53399658203125 C-10.281999588012695,80.53399658203125 11.302000045776367,58.95100021362305 11.302000045776367,32.32500076293945z"></path></g></g><g transform="matrix(1,0,0,1,374.6011047363281,375.2462158203125)" opacity="1" style="display: block;"><g opacity="1" transform="matrix(1,0,0,1,0,0)"><path fill="rgb(255,255,255)" fill-opacity="1" d=" M-48.14500045776367,-114.0530014038086 C-48.14500045776367,-140.6790008544922 -69.72899627685547,-162.26300048828125 -96.3550033569336,-162.26300048828125 C-122.98100280761719,-162.26300048828125 -144.56500244140625,-140.6790008544922 -144.56500244140625,-114.0530014038086 C-144.56500244140625,-87.427001953125 -122.98100280761719,-65.84400177001953 -96.3550033569336,-65.84400177001953 C-69.72899627685547,-65.84400177001953 -48.14500045776367,-87.427001953125 -48.14500045776367,-114.0530014038086z"></path><path stroke-linecap="round" stroke-linejoin="round" fill-opacity="0" stroke="rgb(255,255,255)" stroke-opacity="1" stroke-width="3" d=" M-48.14500045776367,-114.0530014038086 C-48.14500045776367,-140.6790008544922 -69.72899627685547,-162.26300048828125 -96.3550033569336,-162.26300048828125 C-122.98100280761719,-162.26300048828125 -144.56500244140625,-140.6790008544922 -144.56500244140625,-114.0530014038086 C-144.56500244140625,-87.427001953125 -122.98100280761719,-65.84400177001953 -96.3550033569336,-65.84400177001953 C-69.72899627685547,-65.84400177001953 -48.14500045776367,-87.427001953125 -48.14500045776367,-114.0530014038086z"></path></g></g><g transform="matrix(1,0,0,1,375.3409423828125,375.1082763671875)" opacity="1" style="display: block;"><path fill="rgb(255,255,255)" fill-opacity="1" d=" M-135.572998046875,13.340999603271484 C-135.572998046875,-13.28499984741211 -157.156005859375,-34.86899948120117 -183.78199768066406,-34.86899948120117 C-210.4080047607422,-34.86899948120117 -231.99200439453125,-13.28499984741211 -231.99200439453125,13.340999603271484 C-231.99200439453125,39.96699905395508 -210.4080047607422,61.54999923706055 -183.78199768066406,61.54999923706055 C-157.156005859375,61.54999923706055 -135.572998046875,39.96699905395508 -135.572998046875,13.340999603271484z"></path><g opacity="1" transform="matrix(1,0,0,1,0,0)"><path stroke-linecap="round" stroke-linejoin="round" fill-opacity="0" stroke="rgb(255,255,255)" stroke-opacity="1" stroke-width="3" d=" M-135.572998046875,13.340999603271484 C-135.572998046875,-13.28499984741211 -157.156005859375,-34.86899948120117 -183.78199768066406,-34.86899948120117 C-210.4080047607422,-34.86899948120117 -231.99200439453125,-13.28499984741211 -231.99200439453125,13.340999603271484 C-231.99200439453125,39.96699905395508 -210.4080047607422,61.54999923706055 -183.78199768066406,61.54999923706055 C-157.156005859375,61.54999923706055 -135.572998046875,39.96699905395508 -135.572998046875,13.340999603271484z"></path></g></g></g></g></defs><g clip-path="url(#__lottie_element_148)"><g clip-path="url(#__lottie_element_150)" transform="matrix(1,0,0,1,-101,-192.56100463867188)" opacity="1" style="display: block;"><g mask="url(#__lottie_element_171_2)" style="display: block;"><g transform="matrix(1,0,0,1,29.259002685546875,25)" opacity="1"><g opacity="1" transform="matrix(1,0,0,1,349.99200439453125,349.8630065917969)"><g opacity="1" transform="matrix(1,0,0,1,0,0)"><path stroke-linecap="round" stroke-linejoin="round" fill-opacity="0" stroke="#121212" stroke-opacity="1" stroke-width="3.25px" d=" M178.96307373046875,116.40972900390625 C178.96307373046875,116.40972900390625 76.92908477783203,24.81690788269043 76.92908477783203,24.81690788269043"></path></g></g><g opacity="1" transform="matrix(1,0,0,1,349.99200439453125,349.86297607421875)"><g opacity="1" transform="matrix(1,0,0,1,0,0)"><path stroke-linecap="round" stroke-linejoin="round" fill-opacity="0" stroke="#121212" stroke-opacity="1" stroke-width="3.25px" d=" M178.06959533691406,-68.92076110839844 C178.06959533691406,-68.92076110839844 77.05818939208984,23.868907928466797 77.05818939208984,23.868907928466797"></path></g></g><g opacity="1" transform="matrix(1,0,0,1,349.99200439453125,349.86297607421875)"><g opacity="1" transform="matrix(1,0,0,1,0,0)"><path stroke-linecap="round" stroke-linejoin="round" fill-opacity="0" stroke="#121212" stroke-opacity="1" stroke-width="3.25px" d=" M77.7541732788086,24.346097946166992 C77.7541732788086,24.346097946166992 -41.94199752807617,31.322429656982422 -41.94199752807617,31.322429656982422"></path></g></g><g opacity="1" transform="matrix(1,0,0,1,349.99200439453125,349.8630065917969)"><g opacity="1" transform="matrix(1,0,0,1,0,0)"><path stroke-linecap="round" stroke-linejoin="round" fill-opacity="0" stroke="#121212" stroke-opacity="1" stroke-width="3.25px" d=" M-99.8554458618164,-115.42455291748047 C-99.8554458618164,-115.42455291748047 -40.37534713745117,30.982973098754883 -40.37534713745117,30.982973098754883"></path></g></g><g opacity="1" transform="matrix(1,0,0,1,349.99200439453125,349.8639831542969)"><g opacity="1" transform="matrix(1,0,0,1,0,0)"><path stroke-linecap="round" stroke-linejoin="round" fill-opacity="0" stroke="#121212" stroke-opacity="1" stroke-width="3.25px" d=" M-99.1536865234375,-115.8134994506836 C-99.1536865234375,-115.8134994506836 -187.6147003173828,10.555304527282715 -187.6147003173828,10.555304527282715"></path></g></g></g></g><g transform="matrix(1,0,0,1,374.471435546875,374.7971496582031)" opacity="1" style="display: block;"><g opacity="1" transform="matrix(1,0,0,1,0,0)"><path stroke-linecap="round" stroke-linejoin="round" fill-opacity="0" stroke="#121212" stroke-opacity="1" stroke-width="3.25px" d=" M231.99200439453125,114.0530014038086 C231.99200439453125,140.6790008544922 210.4080047607422,162.26300048828125 183.78199768066406,162.26300048828125 C157.156005859375,162.26300048828125 135.572998046875,140.6790008544922 135.572998046875,114.0530014038086 C135.572998046875,87.427001953125 157.156005859375,65.84400177001953 183.78199768066406,65.84400177001953 C210.4080047607422,65.84400177001953 231.99200439453125,87.427001953125 231.99200439453125,114.0530014038086z"></path></g></g><g transform="matrix(1,0,0,1,374.4053039550781,374.3765563964844)" opacity="1" style="display: block;"><g opacity="1" transform="matrix(1,0,0,1,0,0)"><path stroke-linecap="round" stroke-linejoin="round" fill-opacity="0" stroke="#121212" stroke-opacity="1" stroke-width="3.25px" d=" M231.1199951171875,-66.09200286865234 C231.1199951171875,-92.71800231933594 209.53599548339844,-114.302001953125 182.91000366210938,-114.302001953125 C156.28399658203125,-114.302001953125 134.6999969482422,-92.71800231933594 134.6999969482422,-66.09200286865234 C134.6999969482422,-39.465999603271484 156.28399658203125,-17.882999420166016 182.91000366210938,-17.882999420166016 C209.53599548339844,-17.882999420166016 231.1199951171875,-39.465999603271484 231.1199951171875,-66.09200286865234z"></path></g></g><g transform="matrix(1,0,0,1,374.864501953125,374.5428771972656)" opacity="1" style="display: block;"><g opacity="1" transform="matrix(1,0,0,1,0,0)"><path stroke-linecap="round" stroke-linejoin="round" fill-opacity="0" stroke="#121212" stroke-opacity="1" stroke-width="3.25px" d=" M129.7030029296875,25.329999923706055 C129.7030029296875,-1.2960000038146973 108.11900329589844,-22.878999710083008 81.49299621582031,-22.878999710083008 C54.867000579833984,-22.878999710083008 33.284000396728516,-1.2960000038146973 33.284000396728516,25.329999923706055 C33.284000396728516,51.95600128173828 54.867000579833984,73.54000091552734 81.49299621582031,73.54000091552734 C108.11900329589844,73.54000091552734 129.7030029296875,51.95600128173828 129.7030029296875,25.329999923706055z"></path></g></g><g transform="matrix(1,0,0,1,374.5810546875,374.93658447265625)" opacity="1" style="display: block;"><g opacity="1" transform="matrix(1,0,0,1,0,0)"><path stroke-linecap="round" stroke-linejoin="round" fill-opacity="0" stroke="#121212" stroke-opacity="1" stroke-width="3.25px" d=" M11.302000045776367,32.32500076293945 C11.302000045776367,5.698999881744385 -10.281999588012695,-15.885000228881836 -36.90800094604492,-15.885000228881836 C-63.534000396728516,-15.885000228881836 -85.11799621582031,5.698999881744385 -85.11799621582031,32.32500076293945 C-85.11799621582031,58.95100021362305 -63.534000396728516,80.53399658203125 -36.90800094604492,80.53399658203125 C-10.281999588012695,80.53399658203125 11.302000045776367,58.95100021362305 11.302000045776367,32.32500076293945z"></path></g></g><g transform="matrix(1,0,0,1,374.6011047363281,375.2462158203125)" opacity="1" style="display: block;"><g opacity="1" transform="matrix(1,0,0,1,0,0)"><path stroke-linecap="round" stroke-linejoin="round" fill-opacity="0" stroke="#121212" stroke-opacity="1" stroke-width="3.25px" d=" M-48.14500045776367,-114.0530014038086 C-48.14500045776367,-140.6790008544922 -69.72899627685547,-162.26300048828125 -96.3550033569336,-162.26300048828125 C-122.98100280761719,-162.26300048828125 -144.56500244140625,-140.6790008544922 -144.56500244140625,-114.0530014038086 C-144.56500244140625,-87.427001953125 -122.98100280761719,-65.84400177001953 -96.3550033569336,-65.84400177001953 C-69.72899627685547,-65.84400177001953 -48.14500045776367,-87.427001953125 -48.14500045776367,-114.0530014038086z"></path></g></g><g transform="matrix(1,0,0,1,375.3409423828125,375.1082763671875)" opacity="1" style="display: block;"><g opacity="1" transform="matrix(1,0,0,1,0,0)"><path stroke-linecap="round" stroke-linejoin="round" fill-opacity="0" stroke="#121212" stroke-opacity="1" stroke-width="3.25px" d=" M-135.572998046875,13.340999603271484 C-135.572998046875,-13.28499984741211 -157.156005859375,-34.86899948120117 -183.78199768066406,-34.86899948120117 C-210.4080047607422,-34.86899948120117 -231.99200439453125,-13.28499984741211 -231.99200439453125,13.340999603271484 C-231.99200439453125,39.96699905395508 -210.4080047607422,61.54999923706055 -183.78199768066406,61.54999923706055 C-157.156005859375,61.54999923706055 -135.572998046875,39.96699905395508 -135.572998046875,13.340999603271484z"></path></g></g></g></g></svg>