<svg xmlns="http://www.w3.org/2000/svg" xmlns:xlink="http://www.w3.org/1999/xlink" viewBox="0 0 580 580" width="580" height="580" preserveAspectRatio="xMidYMid meet" style="width: 100%; height: 100%; transform: translate3d(0px, 0px, 0px); content-visibility: visible;"><defs><clipPath id="__lottie_element_113"><rect width="580" height="580" x="0" y="0"></rect></clipPath><clipPath id="__lottie_element_115"><path d="M0,0 L750,0 L750,750 L0,750z"></path></clipPath><clipPath id="__lottie_element_119"><path d="M0,0 L480,0 L480,480 L0,480z"></path></clipPath></defs><g clip-path="url(#__lottie_element_113)"><g clip-path="url(#__lottie_element_115)" transform="matrix(1,0,0,1,-145,-170)" opacity="1" style="display: block;"><g clip-path="url(#__lottie_element_119)" transform="matrix(1,0,0,1,135,135)" opacity="1" style="display: block;"><g transform="matrix(1.0462729930877686,0,0,1.0462729930877686,239.8771514892578,238.19615173339844)" opacity="1" style="display: block;"><g opacity="1" transform="matrix(1,0,0,1,0,0)"><path stroke-linecap="round" stroke-linejoin="round" fill-opacity="0" stroke="#121212" stroke-opacity="1" stroke-width="3px" d=" M-143.21426391601562,-69.32577514648438 C-143.21426391601562,-69.32577514648438 -18.42407989501953,-83.8450927734375 -18.42407989501953,-83.8450927734375 C-18.42407989501953,-83.8450927734375 -108.78719329833984,10.687129974365234 -108.78719329833984,10.687129974365234 C-108.78719329833984,10.687129974365234 -143.48609924316406,17.235309600830078 -143.48609924316406,17.235309600830078 C-143.48609924316406,17.235309600830078 -143.21426391601562,-69.32577514648438 -143.21426391601562,-69.32577514648438z"></path></g></g><g transform="matrix(1.0462729930877686,0,0,1.0462729930877686,239.8771514892578,238.19615173339844)" opacity="1" style="display: block;"><g opacity="1" transform="matrix(1,0,0,1,0,0)"><path stroke-linecap="round" stroke-linejoin="round" fill-opacity="0" stroke="#121212" stroke-opacity="1" stroke-width="3px" d=" M115.83148193359375,24.703847885131836 C115.83148193359375,24.703847885131836 70.69584655761719,-55.63137435913086 70.69584655761719,-55.63137435913086 C70.69584655761719,-55.63137435913086 70.22708892822266,36.74891662597656 70.22708892822266,36.74891662597656 C70.22708892822266,36.74891662597656 116.13677215576172,115.84334564208984 116.13677215576172,115.84334564208984 C116.13677215576172,115.84334564208984 115.83148193359375,24.703847885131836 115.83148193359375,24.703847885131836z"></path></g></g><g transform="matrix(1.0462729930877686,0,0,1.0462729930877686,239.8771514892578,238.1951141357422)" opacity="1" style="display: block;"><g opacity="1" transform="matrix(1,0,0,1,0,0)"><path stroke-linecap="round" stroke-linejoin="round" fill-opacity="0" stroke="#121212" stroke-opacity="1" stroke-width="3px" d=" M-146.09202575683594,50.87385177612305 C-146.09202575683594,50.87385177612305 -58.47152328491211,79.18943786621094 -58.47152328491211,79.18943786621094 C-58.47152328491211,79.18943786621094 -58.47152328491211,168.5216522216797 -58.47152328491211,168.5216522216797 C-58.47152328491211,168.5216522216797 -146.09202575683594,140.13406372070312 -146.09202575683594,140.13406372070312 C-146.09202575683594,140.13406372070312 -146.09202575683594,50.87385177612305 -146.09202575683594,50.87385177612305z"></path></g></g><g transform="matrix(1.0462729930877686,0,0,1.0462729930877686,239.8771514892578,238.19615173339844)" opacity="1" style="display: block;"><g opacity="1" transform="matrix(1,0,0,1,0,0)"><path stroke-linecap="round" stroke-linejoin="round" fill-opacity="0" stroke="#121212" stroke-opacity="1" stroke-width="3px" d=" M115.9321060180664,24.327133178710938 C115.9321060180664,24.327133178710938 207.65782165527344,11.059471130371094 207.65782165527344,11.059471130371094 C207.65782165527344,11.059471130371094 207.65280151367188,102.51314544677734 207.65280151367188,102.51314544677734 C207.65280151367188,102.51314544677734 116.23078918457031,116.0565185546875 116.23078918457031,116.0565185546875 C116.23078918457031,116.0565185546875 115.95909118652344,31.849132537841797 115.95909118652344,31.849132537841797 C115.95909118652344,31.849132537841797 115.9321060180664,24.327133178710938 115.9321060180664,24.327133178710938z"></path></g></g><g transform="matrix(1.0462729930877686,0,0,1.0462729930877686,239.8771514892578,238.19615173339844)" opacity="1" style="display: block;"><g opacity="1" transform="matrix(1,0,0,1,0,0)"><path stroke-linecap="round" stroke-linejoin="round" fill-opacity="0" stroke="#121212" stroke-opacity="1" stroke-width="3px" d=" M-175.76199340820312,-131.15069580078125 C-175.76199340820312,-131.15069580078125 -143.5343017578125,-69.7855453491211 -143.5343017578125,-69.7855453491211 C-143.5343017578125,-69.7855453491211 -143.53729248046875,17.540454864501953 -143.53729248046875,17.540454864501953 C-143.53729248046875,17.540454864501953 -175.5738525390625,-43.42496109008789 -175.5738525390625,-43.42496109008789 C-175.5738525390625,-43.42496109008789 -175.75497436523438,-123.62870025634766 -175.75497436523438,-123.62870025634766 C-175.75497436523438,-123.62870025634766 -175.76199340820312,-131.15069580078125 -175.76199340820312,-131.15069580078125z"></path></g></g><g transform="matrix(1.0462729930877686,0,0,1.0462729930877686,239.87818908691406,238.19615173339844)" opacity="1" style="display: block;"><g opacity="1" transform="matrix(1,0,0,1,0,0)"><path stroke-linecap="round" stroke-linejoin="round" fill-opacity="0" stroke="#121212" stroke-opacity="1" stroke-width="3px" d=" M-58.379783630371094,78.56299591064453 C-58.379783630371094,78.56299591064453 70.6357650756836,-55.569156646728516 70.6357650756836,-55.569156646728516 C70.6357650756836,-55.569156646728516 70.21476745605469,29.42384147644043 70.21476745605469,29.42384147644043 C70.21476745605469,29.42384147644043 70.24876403808594,36.94584274291992 70.24876403808594,36.94584274291992 C70.24876403808594,36.94584274291992 -58.395748138427734,168.54994201660156 -58.395748138427734,168.54994201660156 C-58.395748138427734,168.54994201660156 -58.379783630371094,78.56299591064453 -58.379783630371094,78.56299591064453z"></path></g></g><g style="display: none;" transform="matrix(1.100000023841858,0,0,1.100000023841858,239.735595703125,236.10169982910156)" opacity="1"><g opacity="1" transform="matrix(1,0,0,1,0,0)"><path stroke-linecap="round" stroke-linejoin="round" fill-opacity="0" stroke="#121212" stroke-opacity="1" stroke-width="3px" d=" M-46.77262496948242,84.87784576416016 C-46.77262496948242,84.87784576416016 -49.49102020263672,-65.84564208984375 -49.49102020263672,-65.84564208984375 C-49.49102020263672,-65.84564208984375 -49.91202163696289,19.147357940673828 -49.91202163696289,19.147357940673828 C-49.91202163696289,19.147357940673828 -49.878021240234375,26.66935920715332 -49.878021240234375,26.66935920715332 C-49.878021240234375,26.66935920715332 -47.05374526977539,167.8624267578125 -47.05374526977539,167.8624267578125 C-47.05374526977539,167.8624267578125 -46.77262496948242,84.87784576416016 -46.77262496948242,84.87784576416016z"></path></g></g><g transform="matrix(1.0462729930877686,0,0,1.0462729930877686,239.8771514892578,238.19615173339844)" opacity="1" style="display: block;"><g opacity="1" transform="matrix(1,0,0,1,0,0)"><path stroke-linecap="round" stroke-linejoin="round" fill-opacity="0" stroke="#121212" stroke-opacity="1" stroke-width="3px" d=" M-143.36146545410156,-69.33441162109375 C-143.36146545410156,-69.33441162109375 -175.95394897460938,-131.7269744873047 -175.95394897460938,-131.7269744873047 C-175.95394897460938,-131.7269744873047 119.86875915527344,-162.43368530273438 119.86875915527344,-162.43368530273438 C119.86875915527344,-162.43368530273438 207.6240997314453,11.044189453125 207.6240997314453,11.044189453125 C207.6240997314453,11.044189453125 115.66081237792969,24.340412139892578 115.66081237792969,24.340412139892578 C115.66081237792969,24.340412139892578 70.54553985595703,-56.07044982910156 70.54553985595703,-56.07044982910156 C70.54553985595703,-56.07044982910156 -58.714881896972656,78.91165161132812 -58.714881896972656,78.91165161132812 C-58.714881896972656,78.91165161132812 -146.59104919433594,50.635162353515625 -146.59104919433594,50.635162353515625 C-146.59104919433594,50.635162353515625 -18.260496139526367,-84.0418701171875 -18.260496139526367,-84.0418701171875 C-18.260496139526367,-84.0418701171875 -143.36146545410156,-69.33441162109375 -143.36146545410156,-69.33441162109375z"></path></g></g></g></g></g></svg>